{"title":"Edge of Alaska S01E16 Brave New McCarthy 720p","uid":12520421,"size":1578670889,"categoryP":"video","categoryS":"hd___tv_shows","magnet":"?xt=urn:btih:ad6f1625b6872852c98be7ea3b0e114e086c6833&amp;dn=Edge+of+Alaska+S01E16+Brave+New+McCarthy+720p&amp;tr=udp%3A%2F%2Ftracker.leechers-paradise.org%3A6969&amp;tr=udp%3A%2F%2Fzer0day.ch%3A1337&amp;tr=udp%3A%2F%2Fopen.demonii.com%3A1337&amp;tr=udp%3A%2F%2Ftracker.coppersurfer.tk%3A6969&amp;tr=udp%3A%2F%2Fexodus.desync.com%3A6969","seeders":0,"leechers":0,"uploader":"Joker__TPB","files":3,"time":1443864108,"description":"===================================================================================\r\nHidden deep in the wilderness of eastern Alaska is the toughest town in America: McCarthy. Once considered to be the state's very own &quot;Sin City|&quot; McCarthy is now an\r\nisolated town - a refuge for people who don't want to be found that's surrounded by extreme wilderness. While some believe in continuing the town's frontier way of\r\nlife| others feel the future of McCarthy depends on dragging itself into the modern age. Which way of life will reign supreme? It's tradition versus transformation.\r\nBuilt during the Gold Rush in 1900| McCarthy was once a vibrant and flourishing city. Today| with over 100 miles between the residents and the nearest law\r\nenforcement| only 42 people still brave the extreme conditions to live in this secluded| 'Old West' town. A place where young men go to prove themselves| and old\r\noutlaws go to die; home to bear hunters| gold miners| gun smiths| backwoods survivalists - those who choose to reside in this little known town are willing to risk\r\ntheir lives to live ...\r\n===================================================================================\r\nVideo\r\nID                                       : 1\r\nFormat                                   : AVC\r\nFormat/Info                              : Advanced Video Codec\r\nFormat profile                           :   \r\nFormat settings, CABAC                   : Yes\r\nFormat settings, ReFrames                : 5 frames\r\nCodec ID                                 : V_MPEG4/ISO/AVC\r\nDuration                                 : 42mn 30s\r\nBit rate                                 : 4 469 Kbps\r\nWidth                                    : 1 280 pixels\r\nHeight                                   : 720 pixels\r\nDisplay aspect ratio                     : 16:9\r\nFrame rate mode                          : Constant\r\nFrame rate                               : 23.976 fps\r\nColor space                              : YUV\r\nChroma subsampling                       : 4:2:0\r\nBit depth                                : 8 bits\r\nScan type                                : Progressive\r\nBits/(Pixel*Frame)                       : 0.202\r\nStream size                              : 1.33 GiB (90%)\r\nWriting library                          : x264 core 148 r2597 e86f3a1\r\nEncoding settings                        : cabac=1 / ref=5 / deblock=1:0:0 / analyse=0x3:0x113 / me=umh / subme=8 / psy=1 / psy_rd=1.00:0.00 / mixed_ref=1 / me_range=16 / chroma_me=1 / trellis=1 / 8x8dct=1 / cqm=0 / deadzone=21,11 / fast_pskip=1 / chroma_qp_offset=-2 / threads=12 / lookahead_threads=2 / sliced_threads=0 / nr=0 / decimate=1 / interlaced=0 / bluray_compat=0 / constrained_intra=0 / bframes=3 / b_pyramid=2 / b_adapt=2 / b_bias=0 / direct=3 / weightb=1 / open_gop=0 / weightp=2 / keyint=250 / keyint_min=23 / scenecut=40 / intra_refresh=0 / rc_lookahead=50 / rc=crf / mbtree=1 / crf=21.0 / qcomp=0.60 / qpmin=0 / qpmax=69 / qpstep=4 / ip_ratio=1.40 / aq=1:1.00\r\nDefault                                  : Yes\r\nForced                                   : No\r\n\r\nAudio\r\nID                                       : 2\r\nFormat                                   : AC-3\r\nFormat/Info                              : Audio Coding 3\r\nMode extension                           : CM (complete main)\r\nFormat settings, Endianness              : Big\r\nCodec ID                                 : A_AC3\r\nDuration                                 : 42mn 30s\r\nBit rate mode                            : Constant\r\nBit rate                                 : 384 Kbps\r\nChannel(s)                               : 6 channels\r\nChannel positions                        : Front: L C R, Side: L R, LFE\r\nSampling rate                            : 48.0 KHz\r\nCompression mode                         : Lossy\r\nStream size                              : 117 MiB (8%)\r\nDefault                                  : Yes\r\nForced                                   : No\r\n\r\n===================================================================================","torrent":{"xt":"urn:btih:ad6f1625b6872852c98be7ea3b0e114e086c6833","amp;dn":"Edge+of+Alaska+S01E16+Brave+New+McCarthy+720p","amp;tr":["udp%3A%2F%2Ftracker.leechers-paradise.org%3A6969","udp%3A%2F%2Fzer0day.ch%3A1337","udp%3A%2F%2Fopen.demonii.com%3A1337","udp%3A%2F%2Ftracker.coppersurfer.tk%3A6969","udp%3A%2F%2Fexodus.desync.com%3A6969"],"infoHash":"ad6f1625b6872852c98be7ea3b0e114e086c6833","infoHashBuffer":{"type":"Buffer","data":[173,111,22,37,182,135,40,82,201,139,231,234,59,14,17,78,8,108,104,51]},"announce":[],"urlList":[]}}